# xmcd
#
# Track frame offsets: 
#        150
#        17045
#        38874
#        59499
#        81921
#        102090
#        122572
#        147149
#        168386
#        187808
#        211660
#        233677
#        255467
#        273818
#        296839
#
# Disc length: 4259 seconds
#
# Revision: 0
# Processed by: cddbd v1.5.2PL0 Copyright (c) Steve Scherf et al.
# Submitted via: ExactAudioCopy v0.99pb4
#
DISCID=c710a10f
DTITLE=蘇芮 -  一樣的月光 Disc 2
DYEAR=1900
DGENRE=
TTITLE0=心也跟?走
TTITLE1=久別重逢
TTITLE2=誰的?柔改變
TTITLE3=風擋不住我走
TTITLE4=唱出我和你
TTITLE5=鋼鐵的心
TTITLE6=北西南東
TTITLE7=冰冷的記憶
TTITLE8=不願愛你愛得太疲倦
TTITLE9=牽手
TTITLE10=Without you
TTITLE11=風雨情懷
TTITLE12=不停的尋覓
TTITLE13=河
TTITLE14=愛就這樣來
EXTD=
EXTT0=
EXTT1=
EXTT2=
EXTT3=
EXTT4=
EXTT5=
EXTT6=
EXTT7=
EXTT8=
EXTT9=
EXTT10=
EXTT11=
EXTT12=
EXTT13=
EXTT14=
PLAYORDER=
